<svg width="140" height="47" viewBox="0 0 140 47" fill="none" xmlns="http://www.w3.org/2000/svg">
<path fill-rule="evenodd" clip-rule="evenodd" d="M34.42 16.4678H18.0838V21.3257H29.6697C29.0973 28.1376 23.4419 31.0428 18.1034 31.0428C11.2736 31.0426 5.31366 25.6576 5.31366 18.1098C5.31366 10.7568 10.995 5.09429 18.1184 5.09429C23.6143 5.09429 26.8528 8.60524 26.8528 8.60524L30.2469 5.08275C30.2469 5.08275 25.8905 0.222656 17.9448 0.222656C7.82716 0.222548 0 8.78 0 18.0229C0 27.0799 7.3627 35.9116 18.2028 35.9116C27.7367 35.9115 34.7154 29.3668 34.7154 19.6885C34.7154 17.6467 34.4196 16.4666 34.4196 16.4666L34.42 16.4678Z" fill="#180A0A"/>
<path fill-rule="evenodd" clip-rule="evenodd" d="M47.8687 17.4552C51.165 17.4552 54.2886 20.126 54.2886 24.4292C54.2886 28.6413 51.1782 31.3882 47.8535 31.3882C44.2004 31.3881 41.3183 28.4561 41.3183 24.396C41.3183 20.4226 44.1644 17.4552 47.8686 17.4552H47.8687ZM47.8019 12.9497C41.0987 12.9497 36.2949 18.2012 36.2949 24.3261C36.2949 30.5413 40.9543 35.8907 47.8807 35.8907C54.1509 35.8905 59.2877 31.0882 59.2877 24.4596C59.2877 16.8622 53.3123 12.9497 47.8019 12.9497Z" fill="#180A0A"/>
<path fill-rule="evenodd" clip-rule="evenodd" d="M72.895 17.4552C76.1919 17.4552 79.3154 20.126 79.3154 24.4292C79.3154 28.6413 76.2048 31.3882 72.8802 31.3882C69.2273 31.3881 66.3452 28.4561 66.3452 24.396C66.3452 20.4226 69.1915 17.4552 72.895 17.4552ZM72.8285 12.9497C66.1256 12.9497 61.3213 18.2012 61.3213 24.3261C61.3214 30.5413 65.981 35.8907 72.9075 35.8907C79.1773 35.8905 84.3141 31.0882 84.3141 24.4596C84.3141 16.8622 78.3389 12.9497 72.8285 12.9497Z" fill="#180A0A"/>
<path fill-rule="evenodd" clip-rule="evenodd" d="M97.8204 17.4585C100.837 17.4585 103.934 20.0397 103.934 24.4478C103.934 28.9279 100.843 31.3974 97.7537 31.3974C94.4737 31.3973 91.4215 28.7284 91.4215 24.4902C91.4216 20.0864 94.5915 17.4585 97.8204 17.4585ZM97.3748 12.9619C91.2224 12.9619 86.3857 18.3622 86.3857 24.4234C86.3857 31.3276 91.9927 35.9062 97.2687 35.9062C100.531 35.906 102.266 34.6084 103.547 33.1189L103.547 35.3807C103.547 39.338 101.149 41.7081 97.5293 41.7081C94.0335 41.708 92.2794 39.1029 91.6703 37.6244L87.2712 39.4673C88.8317 42.7741 91.9731 46.2228 97.5658 46.2228C103.683 46.2228 108.346 42.3615 108.346 34.2634V13.6516H103.547V15.5947C102.071 14.0011 100.053 12.9622 97.3747 12.9622C97.3748 12.9621 97.3747 12.9621 97.3748 12.9619Z" fill="#180A0A"/>
<path fill-rule="evenodd" clip-rule="evenodd" d="M129.884 17.3463C131.976 17.3463 133.481 18.4605 134.12 19.7965L123.871 24.0896C123.428 20.7659 126.571 17.3463 129.884 17.3463ZM129.684 12.9346C123.881 12.9346 119.008 17.5621 119.008 24.3901C119.008 31.615 124.439 35.9001 130.242 35.9001C135.085 35.9001 138.057 33.245 139.831 30.8662L135.874 28.2277C134.848 29.8247 133.131 31.3855 130.266 31.3855C127.049 31.3852 125.569 29.6195 124.652 27.9089L140 21.527L139.204 19.6566C137.721 15.994 134.262 12.9353 129.685 12.9353L129.684 12.9346Z" fill="#180A0A"/>
<path fill-rule="evenodd" clip-rule="evenodd" d="M111.69 35.2194H116.732V1.40918H111.69V35.2194Z" fill="#180A0A"/>
</svg>
