<svg width="140" height="31" viewBox="0 0 140 31" fill="none" xmlns="http://www.w3.org/2000/svg">
<path d="M49.4258 17.5016L48.5912 19.8737H48.5217C48.3826 19.3388 48.1276 18.5249 47.7103 17.5481L43.236 6.26906H38.8545V24.2458H41.7523V13.1528L41.7291 10.6877C41.706 10.1993 41.6596 9.8272 41.6364 9.54813H41.706C41.8451 10.2458 42.0073 10.7574 42.1232 11.083L47.5016 24.1993H49.5417L54.8737 10.9667C54.9896 10.6644 55.1055 10.0598 55.2214 9.54813H55.291L55.1519 12.7807V24.176H58.2352V6.22255H54.0159L49.4258 17.5016ZM61.1562 11.2923H64.1699V24.176H61.1562V11.2923ZM62.6863 5.85046C62.1762 5.85046 61.7589 6.03651 61.4112 6.36209C61.0635 6.68767 60.878 7.10627 60.878 7.6179C60.8748 7.84951 60.9206 8.07917 61.0126 8.29167C61.1045 8.50416 61.2404 8.69463 61.4112 8.85046C61.7589 9.17604 62.1762 9.33883 62.6863 9.33883C63.1963 9.33883 63.6367 9.15278 63.9613 8.85046C64.1321 8.69463 64.268 8.50416 64.36 8.29167C64.4519 8.07917 64.4977 7.84951 64.4945 7.6179C64.4945 7.12953 64.309 6.71092 63.9613 6.36209C63.6599 6.03651 63.2195 5.85046 62.6863 5.85046ZM74.8571 11.176C74.3008 11.0598 73.7212 10.99 73.1648 10.99C71.797 10.99 70.5452 11.2923 69.502 11.897C68.4587 12.5016 67.6242 13.3388 67.091 14.3853C66.5346 15.4551 66.2564 16.6877 66.2564 18.1063C66.2564 19.3388 66.5346 20.4318 67.0678 21.4318C67.601 22.4086 68.3428 23.1993 69.3397 23.7342C70.2902 24.269 71.4029 24.5481 72.6548 24.5481C74.0921 24.5481 75.3208 24.2458 76.2945 23.6876L76.3177 23.6644V20.8737L76.2017 20.9667C75.7613 21.2923 75.2513 21.5714 74.7412 21.7342C74.208 21.9202 73.7212 22.0132 73.3039 22.0132C72.0984 22.0132 71.1479 21.6644 70.4756 20.897C69.7801 20.1528 69.4324 19.1295 69.4324 17.8504C69.4324 16.5249 69.7801 15.4784 70.4988 14.7109C71.2175 13.9435 72.168 13.5481 73.3271 13.5481C74.3008 13.5481 75.2976 13.8737 76.2017 14.5249L76.3177 14.6179V11.6644L76.2945 11.6411C75.9004 11.4784 75.4599 11.2923 74.8571 11.176ZM84.8025 11.083C84.0607 11.083 83.3652 11.3156 82.7624 11.8039C82.2524 12.2225 81.9047 12.8272 81.6033 13.5481H81.5801V11.2923H78.5664V24.176H81.5801V17.5946C81.5801 16.4784 81.8119 15.5481 82.322 14.8737C82.832 14.176 83.4811 13.8272 84.2693 13.8272C84.5475 13.8272 84.8257 13.897 85.1734 13.9435C85.498 14.0365 85.7298 14.1295 85.8921 14.2458L86.008 14.3388V11.3156L85.9385 11.2923C85.7298 11.1528 85.3125 11.083 84.8025 11.083ZM93.0092 11.0132C90.8995 11.0132 89.2072 11.6412 88.0249 12.8737C86.8194 14.1063 86.2398 15.8039 86.2398 17.9435C86.2398 19.9435 86.8426 21.5714 88.0017 22.7574C89.1608 23.9202 90.7373 24.5249 92.7078 24.5249C94.771 24.5249 96.417 23.8969 97.5993 22.6411C98.8048 21.3853 99.3844 19.7109 99.3844 17.6411C99.3844 15.5946 98.828 13.9667 97.6921 12.7807C96.6025 11.5946 95.0029 11.0132 93.0092 11.0132ZM95.4202 20.9202C94.8638 21.6411 93.9828 21.99 92.8932 21.99C91.8037 21.99 90.9227 21.6411 90.2968 20.8737C89.6709 20.1528 89.3695 19.1063 89.3695 17.7807C89.3695 16.4086 89.694 15.3621 90.2968 14.6179C90.9227 13.8737 91.7805 13.5016 92.8701 13.5016C93.9365 13.5016 94.771 13.8504 95.3738 14.5714C95.9765 15.2923 96.3011 16.3388 96.3011 17.7109C96.2547 19.1063 95.9997 20.1993 95.4202 20.9202ZM106.107 16.6411C105.157 16.2458 104.554 15.9435 104.276 15.6877C104.044 15.4551 103.928 15.1295 103.928 14.7109C103.928 14.3621 104.067 14.0132 104.415 13.7807C104.763 13.5481 105.157 13.4318 105.736 13.4318C106.246 13.4318 106.78 13.5249 107.29 13.6644C107.8 13.8039 108.263 14.0132 108.634 14.2923L108.75 14.3853V11.5481L108.681 11.5249C108.333 11.3853 107.869 11.2458 107.313 11.1295C106.756 11.0365 106.246 10.99 105.829 10.99C104.392 10.99 103.21 11.3388 102.282 12.1063C101.355 12.8272 100.914 13.8039 100.914 14.9435C100.914 15.5481 101.007 16.083 101.216 16.5249C101.424 16.9667 101.726 17.3853 102.143 17.7342C102.56 18.0597 103.163 18.4318 103.998 18.7807C104.693 19.083 105.226 19.3156 105.551 19.5016C105.876 19.6877 106.084 19.897 106.246 20.0597C106.362 20.2458 106.432 20.4783 106.432 20.7807C106.432 21.6411 105.783 22.0597 104.461 22.0597C103.951 22.0597 103.418 21.9667 102.792 21.7574C102.166 21.5481 101.587 21.2458 101.1 20.897L100.984 20.8039V23.7574L101.054 23.7807C101.494 23.99 102.027 24.1295 102.676 24.2923C103.325 24.4086 103.905 24.5016 104.415 24.5016C105.968 24.5016 107.243 24.1528 108.147 23.3853C109.075 22.6411 109.562 21.6876 109.562 20.4551C109.562 19.5946 109.33 18.8272 108.82 18.2458C108.147 17.6877 107.313 17.1063 106.107 16.6411ZM117.513 11.0132C115.404 11.0132 113.711 11.6412 112.529 12.8737C111.347 14.1063 110.744 15.8039 110.744 17.9435C110.744 19.9435 111.347 21.5714 112.506 22.7574C113.665 23.9202 115.241 24.5249 117.212 24.5249C119.275 24.5249 120.921 23.8969 122.103 22.6411C123.309 21.3853 123.888 19.7109 123.888 17.6411C123.888 15.5946 123.332 13.9667 122.196 12.7807C121.107 11.5946 119.507 11.0132 117.513 11.0132ZM119.901 20.9202C119.345 21.6411 118.464 21.99 117.374 21.99C116.261 21.99 115.404 21.6411 114.778 20.8737C114.152 20.1528 113.85 19.1063 113.85 17.7807C113.85 16.4086 114.175 15.3621 114.778 14.6179C115.404 13.8737 116.261 13.5016 117.351 13.5016C118.394 13.5016 119.252 13.8504 119.855 14.5714C120.457 15.2923 120.782 16.3388 120.782 17.7109C120.782 19.1063 120.481 20.1993 119.901 20.9202ZM140 13.7807V11.2923H136.963V7.47836L136.871 7.50162L133.996 8.36208L133.927 8.38534V11.2923H129.383V9.66441C129.383 8.92022 129.568 8.33883 129.893 7.96674C130.217 7.59464 130.704 7.4086 131.307 7.4086C131.724 7.4086 132.165 7.50162 132.651 7.71092L132.767 7.78069V5.15279L132.698 5.12953C132.281 4.99 131.724 4.89697 131.006 4.89697C130.101 4.89697 129.313 5.10627 128.595 5.45511C127.876 5.85046 127.343 6.38534 126.949 7.10627C126.554 7.80395 126.346 8.59464 126.346 9.50162V11.2923H124.236V13.7574H126.346V24.176H129.383V13.7807H133.927V20.4086C133.927 23.1295 135.202 24.5016 137.752 24.5016C138.169 24.5016 138.609 24.4318 139.027 24.3621C139.467 24.269 139.792 24.1528 139.977 24.0597L140 24.0365V21.5481L139.884 21.6411C139.699 21.7574 139.537 21.8504 139.259 21.9202C139.027 21.99 138.818 22.0132 138.656 22.0132C138.053 22.0132 137.636 21.8737 137.334 21.5249C137.056 21.1993 136.917 20.6644 136.917 19.8737V13.7807H140Z" fill="#180A0A"/>
<path d="M0 0.222656H14.211V14.4785H0V0.222656Z" fill="#180A0A"/>
<path d="M15.6943 0.222656H29.9053V14.4785H15.6943V0.222656Z" fill="#180A0A"/>
<path d="M0 15.9668H14.211V30.2226H0V15.9668Z" fill="#180A0A"/>
<path d="M15.6943 15.9668H29.9053V30.2226H15.6943V15.9668Z" fill="#180A0A"/>
</svg>
