<svg width="80" height="60" viewBox="0 0 80 60" fill="none" xmlns="http://www.w3.org/2000/svg">
<path d="M80 0L63.4101 35.3917L61.7512 24.1475C65.0691 24.1475 68.0799 24.9462 70.7834 26.5438C73.4869 28.1413 75.6375 30.2919 77.235 32.9954C78.8326 35.576 79.6313 38.4639 79.6313 41.659C79.6313 44.977 78.8326 47.9877 77.235 50.6912C75.6375 53.2719 73.4869 55.361 70.7834 56.9585C68.0799 58.5561 65.0691 59.3548 61.7512 59.3548C58.4332 59.3548 55.4224 58.5561 52.7189 56.9585C50.0154 55.361 47.8034 53.2104 46.083 50.5069C44.4854 47.6805 43.6866 44.6083 43.6866 41.2903C43.6866 37.9723 44.424 34.5315 45.8986 30.9677C47.3733 27.2811 49.9539 22.6728 53.6406 17.1429L64.5161 0H80ZM36.129 0L19.7235 35.3917L17.8802 24.1475C21.321 24.1475 24.3318 24.9462 26.9124 26.5438C29.616 28.1413 31.7665 30.2919 33.3641 32.9954C35.0845 35.576 35.9447 38.4639 35.9447 41.659C35.9447 44.977 35.0845 47.9877 33.3641 50.6912C31.7665 53.2719 29.616 55.361 26.9124 56.9585C24.3318 58.5561 21.321 59.3548 17.8802 59.3548C14.6851 59.3548 11.6743 58.5561 8.84793 56.9585C6.14439 55.361 3.99386 53.2104 2.39631 50.5069C0.798771 47.6805 0 44.6083 0 41.2903C0 37.9723 0.737327 34.5315 2.21198 30.9677C3.68664 27.2811 6.26728 22.6728 9.95392 17.1429L20.8295 0H36.129Z" fill="#C7C7C7"/>
</svg>
