<svg width="140" height="42" viewBox="0 0 140 42" fill="none" xmlns="http://www.w3.org/2000/svg">
<path fill-rule="evenodd" clip-rule="evenodd" d="M52.9369 18.4669C52.9369 14.5176 55.8651 11.7608 61.1924 11.7608C64.4382 11.7608 67.0983 12.7803 68.5395 13.7791C68.9218 14.0219 69.0706 14.4998 68.8924 14.9112L67.7192 17.3228C67.5022 17.7165 66.9501 17.666 66.6679 17.5238C65.6412 17.0123 63.9601 16.1491 62.4343 15.9894C62.0549 15.9495 61.658 15.9288 61.2561 15.9374C59.8942 15.9669 58.7582 16.4317 58.356 17.4527C58.2749 17.6556 58.2312 17.8582 58.2271 18.0594C58.1919 19.4048 60.0935 19.8901 62.3993 20.2772C66.6894 21 69.9316 22.2361 69.9316 26.5737C69.9316 30.2578 66.9328 33.5883 61.1116 33.4861C57.2623 33.4099 54.5319 32.1338 53.0679 30.8907C53.0186 30.8491 52.4611 30.2908 52.7591 29.6217C53.1014 28.7581 53.6764 27.7668 54.13 27.2464C54.3822 26.9082 55.0472 26.8547 55.3913 27.0662C56.598 27.8031 58.5665 28.9837 60.8704 29.06L61.4048 29.0634C63.4635 29.0149 64.7089 28.2487 64.6823 26.9553C64.6596 25.8162 63.0278 25.152 60.4486 24.6702C56.3033 23.9022 52.9693 22.5605 52.9693 18.4638M90.6204 24.0859C87.6975 24.124 85.0179 24.9093 84.9403 27.1545C84.9403 28.9349 86.4096 29.8104 88.475 29.696C90.4541 29.5089 91.9641 28.6647 92.6292 27.5461C92.8762 27.13 92.9115 25.5785 92.8973 24.9145C92.8938 24.7756 92.6099 24.5056 92.4846 24.455C91.8636 24.1986 91.4032 24.1188 90.62 24.0877M80.8949 15.0432C82.262 13.8417 84.9521 11.9711 89.2918 12.07C94.9895 12.1861 98.0006 14.8127 98.2809 21.0798C98.3955 23.6701 98.2052 30.8957 98.1561 32.6953C98.1788 32.8183 98.1389 32.9444 98.0494 33.0328C98.0048 33.0766 97.9504 33.109 97.8908 33.1275C97.8311 33.146 97.768 33.15 97.7065 33.1391L93.6032 33.1479C93.1006 33.1236 93.0423 32.8792 93.0352 32.6212L93.0052 31.5497C93 31.3348 92.7937 31.3418 92.7405 31.3764C91.4034 32.7635 89.2128 33.457 86.8841 33.457C83.3453 33.457 79.8176 31.4113 79.828 27.3597C79.8387 23.211 82.832 21.1637 86.1202 20.6816C88.2266 20.373 90.6007 20.6469 92.3966 21.3491C92.5112 21.394 92.7459 21.3283 92.7494 21.1687C92.7563 20.6401 92.7316 19.6328 92.626 19.1542C92.3613 17.9372 91.3294 16.9576 89.1597 16.6924C88.7134 16.6377 88.2626 16.6259 87.8138 16.6578C86.0885 16.7911 84.014 18.1139 83.1532 18.6081C82.9503 18.7241 82.6348 18.6392 82.5322 18.5092C82.0312 17.8716 80.7683 16.0091 80.6712 15.711C80.574 15.413 80.7118 15.1649 80.8882 15.0088L80.8949 15.0432ZM100.126 22.7473C100.091 16.9602 104.194 12.0783 110.857 12.0332C115.013 12.0074 118.033 13.8588 118.565 14.7326C118.671 14.9372 118.618 15.1088 118.542 15.3152C118.004 16.3474 117.377 17.3312 116.669 18.2556C116.399 18.5952 116.104 18.3041 115.766 18.082C114.822 17.4631 113.026 16.707 111.261 16.707C108.057 16.707 105.669 18.8671 105.697 22.8392C105.721 26.6533 107.99 28.7458 111.271 28.8204C112.977 28.862 114.632 27.8982 115.505 27.1093C115.783 26.8702 116.073 26.9879 116.392 27.2341C117.018 27.8634 117.916 28.8344 118.415 29.4877C118.742 29.8589 118.498 30.223 118.38 30.3687C117.029 32.0501 114.418 33.4631 110.964 33.4822C103.732 33.5341 100.144 28.5343 100.11 22.7265M134.632 33.2258C134.971 33.2014 138.594 32.7088 139.707 32.4592C139.982 32.3969 140.081 32.1698 139.929 31.9428L135.965 26.1002L132.199 21.3552C132.068 21.1817 132.075 21.0084 132.216 20.8698L139.107 14.0805C139.728 13.4217 139.354 13.1359 138.828 12.9813C137.808 12.6833 136.161 12.3104 135.224 12.1144C134.829 12.0329 134.353 12.0625 133.989 12.4091L126.034 20.1676C125.769 20.4275 125.617 20.37 125.616 19.9975L125.445 3.34565C125.438 3.08547 125.12 2.88961 124.942 2.88129L120.788 2.87256C120.525 2.91899 120.317 3.1179 120.264 3.37531C120.052 6.50796 120.352 29.505 120.479 32.7229C120.482 32.9479 120.66 33.1332 120.888 33.1494C121.8 33.2012 124.056 33.1979 125.111 33.1788C125.63 33.1788 125.693 32.8201 125.693 32.8201L125.771 26.6479C125.771 26.6479 125.824 26.3741 125.912 26.3014L127.75 24.4079C127.856 24.3074 128.022 24.3145 128.128 24.4564C128.648 25.1464 130.134 27.3899 131.51 29.3938L134.037 32.9839C134.228 33.2509 134.45 33.2614 134.62 33.2561L134.632 33.2258Z" fill="#180A0A"/>
<path fill-rule="evenodd" clip-rule="evenodd" d="M73.036 33.2237L76.8427 33.2307C76.9841 33.2393 77.1232 33.1915 77.2295 33.0977C77.2815 33.0518 77.3237 32.9958 77.3537 32.9331C77.3836 32.8705 77.4006 32.8024 77.4037 32.733C77.633 28.2222 77.534 6.74557 77.3894 3.35621C77.3772 3.06138 77.2484 2.95215 77.0456 2.92623C76.1283 2.8048 73.5141 2.83433 72.6762 3.04765C72.5216 3.07953 72.4107 3.21316 72.41 3.36827C72.2053 12.1092 72.3429 32.2616 72.3871 32.6431C72.4314 33.0245 72.6339 33.21 73.0345 33.2239L73.036 33.2237Z" fill="#180A0A"/>
<path fill-rule="evenodd" clip-rule="evenodd" d="M11.0889 26.7506C11.0889 24.3408 12.9435 22.4009 15.2473 22.4009C17.551 22.4009 19.4057 24.3408 19.4057 26.7506V37.457C19.4057 39.8667 17.551 41.8067 15.2473 41.8067C12.9435 41.8067 11.0889 39.8667 11.0889 37.457V26.7506Z" fill="#180A0A"/>
<path fill-rule="evenodd" clip-rule="evenodd" d="M26.5274 30.7177C24.1178 30.7177 22.1777 28.863 22.1777 26.5593C22.1777 24.2555 24.1176 22.4009 26.5274 22.4009H37.2342C39.6438 22.4009 41.5838 24.2555 41.5838 26.5593C41.5838 28.863 39.644 30.7177 37.2342 30.7177H26.5274Z" fill="#180A0A"/>
<path fill-rule="evenodd" clip-rule="evenodd" d="M22.1777 4.57234C22.1777 2.16255 24.0324 0.222656 26.3361 0.222656C28.6399 0.222656 30.4945 2.16255 30.4945 4.57234V15.2788C30.4945 17.6886 28.6399 19.6285 26.3361 19.6285C24.0324 19.6285 22.1777 17.6886 22.1777 15.2788V4.57234Z" fill="#180A0A"/>
<path fill-rule="evenodd" clip-rule="evenodd" d="M4.34968 19.6283C1.93989 19.6283 0 17.7737 0 15.4699C0 13.1662 1.93989 11.3115 4.34968 11.3115H15.0562C17.4659 11.3115 19.4058 13.1662 19.4058 15.4699C19.4058 17.7737 17.4659 19.6283 15.0562 19.6283H4.34968Z" fill="#180A0A"/>
<path fill-rule="evenodd" clip-rule="evenodd" d="M22.1777 37.6481C22.1777 39.9519 24.0324 41.8065 26.3361 41.8065C28.6399 41.8065 30.4945 39.9519 30.4945 37.6481C30.4945 35.3444 28.6399 33.4897 26.3361 33.4897H22.1777V37.6481Z" fill="#180A0A"/>
<path fill-rule="evenodd" clip-rule="evenodd" d="M37.426 19.6283H33.2676V15.4699C33.2676 13.1662 35.1222 11.3115 37.426 11.3115C39.7297 11.3115 41.5844 13.1662 41.5844 15.4699C41.5844 17.7737 39.7297 19.6283 37.426 19.6283Z" fill="#180A0A"/>
<path fill-rule="evenodd" clip-rule="evenodd" d="M4.15839 22.4009H8.31679V26.5593C8.31679 28.863 6.46214 30.7177 4.15839 30.7177C1.85464 30.7177 0 28.863 0 26.5593C0 24.2555 1.85464 22.4009 4.15839 22.4009Z" fill="#180A0A"/>
<path fill-rule="evenodd" clip-rule="evenodd" d="M19.4057 4.38105V8.53944H15.2473C12.9435 8.53944 11.0889 6.6848 11.0889 4.38105C11.0889 2.0773 12.9435 0.222656 15.2473 0.222656C17.551 0.222656 19.4057 2.0773 19.4057 4.38105Z" fill="#180A0A"/>
</svg>
