<svg width="78" height="88" viewBox="0 0 78 88" fill="none" xmlns="http://www.w3.org/2000/svg">
<path d="M77.8986 55.6736L68.3519 58.1956C58.6046 60.7699 51.2137 68.7953 49.3873 78.7869L47.7175 87.9227L46.0412 78.7762C44.2107 68.79 36.8226 60.7712 27.0806 58.1956L17.5352 55.6736L27.0965 53.2065C36.8319 50.6939 44.2586 42.7448 46.1634 32.7946L47.7175 24.6821L49.2651 32.7839C51.1672 42.7394 58.5953 50.6939 68.3359 53.2065L77.8986 55.6736Z" fill="#E85C0D"/>
<path d="M37.2784 26.1395L31.3832 27.6972C25.3645 29.287 20.799 34.2439 19.6713 40.413L18.6392 46.0544L17.6044 40.4064C16.474 34.24 11.9112 29.287 5.89515 27.6972L0 26.1395L5.90445 24.6153C11.9165 23.063 16.5019 18.1542 17.6788 12.0105L18.6378 7L19.5943 12.0038C20.7685 18.1515 25.3566 23.0643 31.3713 24.6166L37.2784 26.1395Z" fill="#E85C0D"/>
<path d="M27 73.8994C27 71.1926 29.1758 69 31.859 69C34.5436 69 36.7181 71.1939 36.7181 73.8994C36.7181 76.6049 34.5423 78.7988 31.859 78.7988C29.1758 78.7988 27 76.6063 27 73.8994Z" fill="#4C4C4C"/>
<path d="M31 10.6891C31 9.21044 32.1889 8.01172 33.6553 8.01172C35.1218 8.01172 36.3107 9.21044 36.3107 10.6891C36.3107 12.1677 35.1218 13.3665 33.6553 13.3665C32.1889 13.3665 31 12.1677 31 10.6891Z" fill="#4C4C4C"/>
<path d="M21 84.6774C21 83.1987 22.1889 82 23.6553 82C25.1218 82 26.3107 83.1987 26.3107 84.6774C26.3107 86.156 25.1218 87.3547 23.6553 87.3547C22.1889 87.3547 21 86.156 21 84.6774Z" fill="#4C4C4C"/>
<path d="M39.5322 2.02645C39.5322 0.908088 40.4315 0 41.5407 0C42.6498 0 43.5491 0.906748 43.5491 2.02645C43.5491 3.14482 42.6498 4.05156 41.5407 4.05156C40.4315 4.0529 39.5322 3.14616 39.5322 2.02645Z" fill="#4C4C4C"/>
</svg>
