<svg width="152" height="164" viewBox="0 0 152 164" fill="none" xmlns="http://www.w3.org/2000/svg">
<path d="M140.157 24.3803L69.9221 75.3058L11.8932 139.676L83.4463 87.4628L140.157 24.3803Z" fill="#E85C0D"/>
<path d="M140.105 139.676L83.4461 76.5412L11.8409 24.3804L69.9219 88.6983L140.105 139.676Z" fill="#E85C0D"/>
<path d="M150.831 80.8129C152.374 81.0669 152.397 82.8506 150.854 83.1277L109.83 90.5109C95.0626 93.1663 83.5792 106.997 81.6711 124.413L77.4618 162.922C77.3057 164.359 74.7096 164.359 74.5535 162.922L70.3441 124.413C68.4418 106.997 56.9529 93.1663 42.1855 90.5109L1.14418 83.1277C-0.393848 82.8506 -0.376514 81.0669 1.1673 80.8129L41.7576 74.1283C56.7331 71.6634 68.4476 57.7169 70.3441 40.0875L74.5477 1.08236C74.7038 -0.360785 77.3056 -0.360785 77.456 1.08236L81.6597 40.0875C83.562 57.7169 95.2707 71.6634 110.246 74.1283L150.831 80.8129Z" fill="#E85C0D"/>
</svg>
