<svg width="140" height="43" viewBox="0 0 140 43" fill="none" xmlns="http://www.w3.org/2000/svg">
<path d="M21.181 0.222656C9.46275 0.222656 0 9.63175 0 21.2227C0 32.839 9.4884 42.2227 21.1822 42.2227C32.8993 42.2227 42.3644 32.8159 42.3644 21.2227C42.3644 9.62944 32.876 0.222656 21.1822 0.222656H21.181ZM30.8991 30.5301C30.5191 31.1576 29.7101 31.3332 29.0772 30.9576C24.0917 27.9472 17.8403 27.2712 10.4501 28.9237C9.74134 29.074 9.03263 28.6464 8.88109 27.9449C8.72956 27.2435 9.16085 26.5397 9.8684 26.3895C17.9417 24.5578 24.875 25.3355 30.4421 28.7238C31.0751 29.1005 31.2767 29.9025 30.8967 30.5301H30.8991ZM33.4798 24.8097C32.9996 25.5875 31.9878 25.8128 31.2021 25.3621C25.5079 21.8999 16.8297 20.8968 10.0969 22.9029C9.21097 23.1537 8.30176 22.6776 8.04532 21.8236C7.79238 20.9453 8.27262 20.0439 9.15852 19.7897C16.8518 17.4819 26.4171 18.5855 32.9728 22.5632C33.7304 23.0139 33.9601 24.0193 33.4787 24.7958L33.4798 24.8097ZM33.7071 18.8386C26.8741 14.824 15.6127 14.4472 9.08392 16.4049C8.03483 16.7307 6.93329 16.1275 6.60341 15.099C6.27353 14.0705 6.88317 12.9669 7.9206 12.6398C15.4111 10.3817 27.8625 10.8336 35.7074 15.4503C36.6434 16.0027 36.9476 17.2069 36.3905 18.1348C35.8846 19.0882 34.6443 19.3898 33.7095 18.8375L33.7071 18.8386Z" fill="#180A0A"/>
<path d="M62.7205 17.8964C59.1078 17.0565 58.4849 16.439 58.4849 15.1792C58.4849 13.9935 59.6061 13.2031 61.2754 13.2031C62.895 13.2031 64.5145 13.8206 66.2088 15.0557C66.2586 15.1051 66.3333 15.1051 66.3832 15.1051C66.4579 15.1051 66.5077 15.0557 66.5327 15.0063L68.3017 12.5362C68.3368 12.4866 68.3512 12.4255 68.3419 12.3657C68.3326 12.3058 68.3003 12.2519 68.2518 12.215C66.2337 10.6094 63.9663 9.8437 61.3253 9.8437C57.4384 9.8437 54.7226 12.1656 54.7226 15.4756C54.7226 19.0326 57.0647 20.2924 61.1259 21.2558C64.5643 22.0462 65.1623 22.7132 65.1623 23.8741C65.1623 25.1833 63.9912 25.9985 62.0976 25.9985C60.0047 25.9985 58.2855 25.3068 56.367 23.6518C56.3172 23.6024 56.2424 23.6024 56.1926 23.6024C56.1179 23.6024 56.068 23.6271 56.0431 23.6765L54.0748 25.9985C54 26.0973 54 26.2455 54.0997 26.3196C56.3421 28.2957 59.0828 29.3332 62.0478 29.3332C66.2337 29.3332 68.9495 27.0606 68.9495 23.553C68.8997 20.5888 67.1057 18.9585 62.7205 17.8964ZM78.3926 14.3641C76.5737 14.3641 75.0788 15.0804 73.8579 16.5378V14.9075C73.8579 14.784 73.7582 14.6852 73.6337 14.6852H70.4195C70.2949 14.6852 70.1953 14.784 70.1953 14.9075V33.0878C70.1953 33.2113 70.2949 33.3101 70.4195 33.3101H73.6337C73.7582 33.3101 73.8579 33.2113 73.8579 33.0878V27.357C75.0788 28.7156 76.5737 29.3826 78.3926 29.3826C81.7562 29.3826 85.1946 26.8136 85.1946 21.8733C85.1697 16.9577 81.7562 14.3641 78.3926 14.3641ZM81.4323 21.8733C81.4323 24.3929 79.8626 26.122 77.6451 26.122C75.4276 26.122 73.7831 24.2941 73.7831 21.8733C73.7831 19.4526 75.4525 17.6247 77.6451 17.6247C79.8377 17.6247 81.4323 19.4032 81.4323 21.8733ZM93.94 14.3641C89.6047 14.3641 86.1912 17.6741 86.1912 21.9227C86.1912 26.122 89.5798 29.4073 93.8902 29.4073C98.2505 29.4073 101.664 26.0973 101.664 21.8733C101.664 17.6741 98.2754 14.3641 93.94 14.3641ZM93.94 26.1467C91.6228 26.1467 89.8787 24.2941 89.8787 21.8733C89.8787 19.4279 91.573 17.6494 93.8902 17.6494C96.2074 17.6494 97.9764 19.502 97.9764 21.9474C97.9515 24.3682 96.2572 26.1467 93.94 26.1467ZM110.933 14.6605H107.395V11.0541C107.395 10.9306 107.295 10.8318 107.17 10.8318H103.956C103.832 10.8318 103.732 10.9306 103.732 11.0541V14.6605H102.187C102.063 14.6605 101.963 14.7593 101.963 14.8828V17.6247C101.963 17.7482 102.063 17.847 102.187 17.847H103.732V24.961C103.732 27.8264 105.177 29.2837 108.017 29.2837C109.164 29.2837 110.135 29.0367 111.032 28.5427C111.107 28.4933 111.157 28.4192 111.157 28.3451V25.7267C111.157 25.6526 111.107 25.5785 111.057 25.5291C110.982 25.4797 110.908 25.4797 110.833 25.5291C110.21 25.8502 109.612 25.9738 108.939 25.9738C107.893 25.9738 107.444 25.5044 107.444 24.467V17.8717H110.982C111.107 17.8717 111.207 17.7729 111.207 17.6494V14.9075C111.182 14.7593 111.082 14.6605 110.933 14.6605ZM123.316 14.6852V14.2406C123.316 12.9314 123.814 12.3632 124.935 12.3632C125.608 12.3632 126.156 12.4868 126.754 12.6844C126.829 12.7091 126.904 12.6844 126.978 12.6597C127.028 12.6103 127.078 12.5362 127.078 12.4621V9.76959C127.078 9.67079 127.003 9.57198 126.904 9.54728C126.256 9.34967 125.458 9.17676 124.213 9.17676C121.223 9.17676 119.653 10.8318 119.653 13.9935V14.6605H118.108C117.984 14.6605 117.859 14.7593 117.859 14.8828V17.6494C117.859 17.7729 117.959 17.8717 118.108 17.8717H119.653V28.8391C119.653 28.9626 119.753 29.0614 119.877 29.0614H123.091C123.216 29.0614 123.316 28.9626 123.316 28.8391V17.8717H126.331L130.94 28.8391C130.417 30.0001 129.893 30.2224 129.196 30.2224C128.623 30.2224 128.025 30.0495 127.427 29.7284C127.377 29.7037 127.302 29.7037 127.228 29.7037C127.178 29.7284 127.103 29.7778 127.078 29.8272L125.982 32.1985C125.932 32.322 125.982 32.4455 126.081 32.4949C127.228 33.1125 128.249 33.3595 129.52 33.3595C131.912 33.3595 133.207 32.2479 134.378 29.3085L139.984 14.9816C140.009 14.9075 140.009 14.8334 139.959 14.7593C139.91 14.6852 139.835 14.6605 139.76 14.6605H136.397C136.297 14.6605 136.197 14.7346 136.172 14.8087L132.734 24.5411L128.972 14.784C128.947 14.6852 128.847 14.6358 128.747 14.6358H123.316V14.6852ZM116.14 14.6605H112.926C112.801 14.6605 112.702 14.7593 112.702 14.8828V28.8391C112.702 28.9626 112.801 29.0614 112.926 29.0614H116.14C116.265 29.0614 116.364 28.9626 116.364 28.8391V14.9075C116.389 14.7593 116.265 14.6605 116.14 14.6605Z" fill="#180A0A"/>
<path d="M114.546 12.9065C115.825 12.9065 116.863 11.878 116.863 10.6092C116.863 9.34052 115.825 8.31201 114.546 8.31201C113.266 8.31201 112.229 9.34052 112.229 10.6092C112.229 11.878 113.266 12.9065 114.546 12.9065Z" fill="#180A0A"/>
</svg>
