<svg width="102" height="102" viewBox="0 0 102 102" fill="none" xmlns="http://www.w3.org/2000/svg">
<path d="M50.6591 38.6214L46.6979 0H54.6203L50.6591 38.6214Z" fill="#E85C0D"/>
<path d="M42.0081 42.4835L11.8953 17.9757L17.4964 12.3747L42.0081 42.4835Z" fill="#E85C0D"/>
<path d="M38.6214 51.3367L0 55.2978V47.3755L38.6214 51.3367Z" fill="#E85C0D"/>
<path d="M42.4834 59.9918L17.9756 90.1007L12.3745 84.4996L42.4834 59.9918Z" fill="#E85C0D"/>
<path d="M51.3365 63.3786L55.2977 102H47.3754L51.3365 63.3786Z" fill="#E85C0D"/>
<path d="M59.9917 59.5126L90.1005 84.0203L84.4995 89.6214L59.9917 59.5126Z" fill="#E85C0D"/>
<path d="M63.3786 50.6593L102 46.6982V54.6205L63.3786 50.6593Z" fill="#E85C0D"/>
<path d="M59.5125 42.0082L84.0203 11.8953L89.6214 17.5004L59.5125 42.0082Z" fill="#E85C0D"/>
</svg>
