<svg width="140" height="34" viewBox="0 0 140 34" fill="none" xmlns="http://www.w3.org/2000/svg">
<path d="M43.7034 5.39024C43.1872 3.36551 41.6673 1.76387 39.746 1.21991C36.2761 0.222656 22.3105 0.222656 22.3105 0.222656C22.3105 0.222656 8.34494 0.252876 4.87505 1.25013C2.95371 1.79408 1.43384 3.39573 0.917656 5.42046C-6.83707e-08 9.07705 0 16.7227 0 16.7227C0 16.7227 -6.83707e-08 24.3683 0.946333 28.0551C1.46251 30.0798 2.98238 31.6814 4.90373 32.2254C8.37362 33.2227 22.3392 33.2227 22.3392 33.2227C22.3392 33.2227 36.3048 33.2227 39.7747 32.2254C41.696 31.6814 43.2159 30.0798 43.7321 28.0551C44.6784 24.3985 44.6784 16.7227 44.6784 16.7227C44.6784 16.7227 44.6497 9.07705 43.7034 5.39024Z" fill="#180A0A"/>
<path d="M29.4506 16.7228L17.8652 9.65137V23.7942L29.4506 16.7228Z" fill="white"/>
<path d="M64.81 30.2307C63.921 29.5961 63.2901 28.629 62.9173 27.2994C62.5445 25.9697 62.3724 24.217 62.3724 22.0109V19.0191C62.3724 16.8131 62.5732 14.9999 63.0033 13.6702C63.4335 12.3104 64.093 11.3433 65.0107 10.7389C65.9283 10.1345 67.1041 9.80212 68.5666 9.80212C70.0004 9.80212 71.1762 10.1043 72.0365 10.7389C72.8968 11.3735 73.5564 12.3406 73.9578 13.6702C74.3593 14.9999 74.5601 16.7829 74.5601 18.9889V21.9807C74.5601 24.1867 74.3593 25.9395 73.9578 27.2691C73.5564 28.5988 72.9255 29.5659 72.0365 30.2005C71.1475 30.8049 69.9431 31.1373 68.4519 31.1373C66.9034 31.1675 65.6989 30.8351 64.81 30.2307ZM69.771 26.9972C70.0291 26.3323 70.1438 25.2142 70.1438 23.7032V17.2664C70.1438 15.7856 70.0291 14.6977 69.771 14.0329C69.5129 13.3378 69.0828 13.0054 68.4806 13.0054C67.8784 13.0054 67.4769 13.3378 67.2188 14.0329C66.9607 14.7279 66.846 15.7856 66.846 17.2664V23.7032C66.846 25.2142 66.9607 26.3323 67.1901 26.9972C67.4195 27.662 67.8497 27.9944 68.4806 27.9944C69.0828 27.9944 69.5129 27.662 69.771 26.9972ZM132.631 22.0713V23.129L132.745 26.1208C132.831 26.7856 132.975 27.2691 133.204 27.5713C133.433 27.8735 133.806 28.0246 134.294 28.0246C134.953 28.0246 135.412 27.7527 135.642 27.2087C135.9 26.6648 136.014 25.7582 136.043 24.5192L139.857 24.7609C139.886 24.9422 139.886 25.184 139.886 25.4862C139.886 27.39 139.398 28.8104 138.395 29.7472C137.391 30.684 136.014 31.1675 134.208 31.1675C132.028 31.1675 130.508 30.4422 129.648 29.0219C128.788 27.6016 128.329 25.3653 128.329 22.3735V18.717C128.329 15.6345 128.788 13.3681 129.677 11.9477C130.594 10.5274 132.143 9.80212 134.322 9.80212C135.842 9.80212 136.989 10.1043 137.792 10.6785C138.595 11.2527 139.169 12.1593 139.513 13.3983C139.857 14.6373 140 16.3296 140 18.5054V22.0411H132.631V22.0713ZM133.204 13.3681C132.975 13.6702 132.831 14.1235 132.745 14.7884C132.659 15.4532 132.631 16.4505 132.631 17.8104V19.2911H135.842V17.8104C135.842 16.4807 135.814 15.4834 135.728 14.7884C135.642 14.0933 135.498 13.6098 135.269 13.3378C135.039 13.0659 134.695 12.9148 134.236 12.9148C133.749 12.945 133.405 13.0961 133.204 13.3681ZM54.0848 21.6785L49.0664 2.57959H53.454L55.2032 11.2224C55.6621 13.3681 55.9775 15.1812 56.2069 16.662H56.3216C56.465 15.5741 56.8091 13.7911 57.3253 11.2527L59.132 2.57959H63.5195L58.4437 21.6483V30.8049H54.1135V21.6785H54.0848Z" fill="#180A0A"/>
<path d="M88.7837 10.1953V30.8354H85.3425L84.9697 28.297H84.8836C83.9373 30.2008 82.5321 31.1678 80.6681 31.1678C79.3777 31.1678 78.4027 30.7145 77.8005 29.808C77.1696 28.9014 76.8828 27.5113 76.8828 25.6074V10.1953H81.299V25.3354C81.299 26.242 81.3851 26.9069 81.5858 27.2997C81.7865 27.6926 82.102 27.8739 82.5321 27.8739C82.9049 27.8739 83.2777 27.753 83.6219 27.5112C83.966 27.2695 84.2241 26.9371 84.3961 26.5744V10.1953H88.7837Z" fill="#180A0A"/>
<path d="M111.41 10.1953V30.8354H107.968L107.596 28.297H107.51C106.563 30.2008 105.158 31.1678 103.294 31.1678C102.004 31.1678 101.029 30.7145 100.426 29.808C99.7956 28.9014 99.5088 27.5113 99.5088 25.6074V10.1953H103.925V25.3354C103.925 26.242 104.011 26.9069 104.212 27.2997C104.413 27.6926 104.728 27.8739 105.158 27.8739C105.531 27.8739 105.904 27.753 106.248 27.5112C106.592 27.2695 106.85 26.9371 107.022 26.5744V10.1953H111.41Z" fill="#180A0A"/>
<path d="M100.771 6.32692H96.3834V30.8352H92.0819V6.32692H87.6943V2.57967H100.742V6.32692H100.771ZM125.978 13.489C125.72 12.1896 125.29 11.2527 124.687 10.6483C124.085 10.0742 123.282 9.77197 122.221 9.77197C121.418 9.77197 120.644 10.0137 119.956 10.4972C119.239 10.9808 118.723 11.6154 118.321 12.4011H118.292V1.52197H114.048V30.8049H117.69L118.149 28.8407H118.235C118.579 29.5357 119.095 30.0797 119.755 30.5027C120.449 30.9036 121.229 31.1116 122.02 31.1071C123.512 31.1071 124.601 30.3819 125.318 28.9313C126.006 27.4808 126.379 25.2143 126.379 22.1621V18.8983C126.379 16.6016 126.236 14.7885 125.978 13.489ZM121.934 21.9203C121.934 23.4313 121.877 24.6099 121.762 25.456C121.648 26.3022 121.447 26.9066 121.16 27.2692C120.873 27.6319 120.501 27.8132 120.042 27.8132C119.669 27.8132 119.353 27.7225 119.038 27.5412C118.723 27.3599 118.493 27.0879 118.292 26.7253V15C118.436 14.4258 118.694 13.9725 119.067 13.6099C119.44 13.2472 119.812 13.0659 120.242 13.0659C120.701 13.0659 121.045 13.2472 121.275 13.6099C121.533 13.9725 121.676 14.6071 121.791 15.4835C121.877 16.3599 121.934 17.5989 121.934 19.2308V21.9203Z" fill="#180A0A"/>
</svg>
