<svg width="208" height="37" viewBox="0 0 208 37" fill="none" xmlns="http://www.w3.org/2000/svg">
<path d="M61.1805 8.89887C63.4217 8.89887 65.3828 9.29788 67.0637 10.0959C68.7446 10.8939 70.0519 12.006 70.9858 13.4322C71.9366 14.8584 72.412 16.5308 72.412 18.4494C72.412 20.3511 71.9366 22.0235 70.9858 23.4667C70.0519 24.8929 68.7446 26.005 67.0637 26.803C65.3828 27.601 63.4217 28 61.1805 28H51.8592V8.89887H61.1805ZM56.6472 26.039L54.3041 23.7468H61.5371C62.7596 23.7468 63.8207 23.5261 64.7206 23.0846C65.6205 22.6432 66.3166 22.032 66.809 21.2509C67.3014 20.4529 67.5476 19.5191 67.5476 18.4494C67.5476 17.3628 67.3014 16.429 66.809 15.6479C66.3166 14.8669 65.6205 14.2557 64.7206 13.8142C63.8207 13.3728 62.7596 13.1521 61.5371 13.1521H54.3041L56.6472 10.8599V26.039ZM75.2382 8.89887H80.0516V28H75.2382V8.89887ZM103.227 19.7228C103.193 20.8774 102.964 21.981 102.539 23.0337C102.115 24.0694 101.503 24.9948 100.705 25.8097C99.9073 26.6077 98.9226 27.2444 97.751 27.7199C96.5795 28.1783 95.2127 28.4075 93.6506 28.4075C92.1565 28.4075 90.7558 28.1868 89.4484 27.7453C88.158 27.3039 87.0204 26.6587 86.0357 25.8097C85.0509 24.9438 84.2868 23.8996 83.7435 22.6772C83.2002 21.4377 82.9285 20.0285 82.9285 18.4494C82.9285 16.8704 83.2002 15.4697 83.7435 14.2472C84.3038 13.0077 85.0764 11.9635 86.0611 11.1146C87.0629 10.2487 88.2259 9.595 89.5503 9.15356C90.8916 8.71211 92.3518 8.49138 93.9308 8.49138C95.9852 8.49138 97.768 8.81398 99.2791 9.45917C100.807 10.1044 102.03 10.9873 102.947 12.1079C103.88 13.2285 104.475 14.5188 104.729 15.979H99.8649C99.6951 15.2659 99.3385 14.6547 98.7952 14.1453C98.2519 13.619 97.5643 13.22 96.7323 12.9483C95.9173 12.6767 94.9835 12.5408 93.9308 12.5408C92.6574 12.5408 91.5623 12.77 90.6454 13.2285C89.7285 13.6699 89.0154 14.3321 88.5061 15.215C87.9967 16.0809 87.742 17.159 87.742 18.4494C87.742 19.7398 88.0052 20.835 88.5315 21.7348C89.0749 22.6347 89.8389 23.3139 90.8237 23.7723C91.8254 24.2307 92.997 24.4599 94.3383 24.4599C95.6457 24.4599 96.7917 24.2647 97.7765 23.8742C98.7782 23.4836 99.5678 22.9233 100.145 22.1933C100.739 21.4632 101.079 20.5888 101.164 19.57L103.227 19.7228ZM94.8986 21.6584V18.2457H104.908V28H101.469L100.807 20.3595L101.775 21.6584H94.8986ZM124.263 16.6667V20.2322H110.434V16.6667H124.263ZM113.694 18.4494L112.42 26.3446L110.408 24.0779H125.078V28H107.607L109.084 18.4494L107.607 8.89887H124.951V12.821H110.408L112.42 10.5543L113.694 18.4494ZM145.939 24.7146L144.386 24.9948V8.89887H149.046V28H142.985L131.346 11.9041L132.899 11.624V28H128.239V8.89887H134.479L145.939 24.7146ZM173.722 20.1049C173.535 21.7518 172.967 23.2035 172.016 24.4599C171.065 25.6994 169.809 26.6672 168.247 27.3633C166.684 28.0594 164.902 28.4075 162.898 28.4075C160.708 28.4075 158.781 27.9915 157.117 27.1596C155.47 26.3276 154.188 25.1645 153.271 23.6704C152.354 22.1763 151.896 20.436 151.896 18.4494C151.896 16.4629 152.354 14.7226 153.271 13.2285C154.188 11.7343 155.47 10.5713 157.117 9.73932C158.781 8.90736 160.708 8.49138 162.898 8.49138C164.902 8.49138 166.684 8.83945 168.247 9.53558C169.809 10.2317 171.065 11.1995 172.016 12.439C172.967 13.6784 173.535 15.1301 173.722 16.794H168.883C168.713 15.9281 168.365 15.1895 167.839 14.5783C167.33 13.967 166.651 13.5001 165.802 13.1775C164.97 12.838 164.002 12.6682 162.898 12.6682C161.625 12.6682 160.53 12.9059 159.613 13.3813C158.696 13.8397 157.991 14.5019 157.499 15.3678C157.007 16.2337 156.76 17.2609 156.76 18.4494C156.76 19.638 157.007 20.6652 157.499 21.5311C157.991 22.397 158.696 23.0677 159.613 23.5431C160.53 24.0015 161.625 24.2307 162.898 24.2307C164.002 24.2307 164.97 24.0694 165.802 23.7468C166.651 23.4242 167.33 22.9573 167.839 22.3461C168.365 21.7348 168.713 20.9878 168.883 20.1049H173.722ZM176.414 8.89887H181.228V28H176.414V8.89887ZM188.383 24.1543V20.2831H201.576V24.1543H188.383ZM198.214 8.89887L207.026 28H201.907L194.343 10.9109H195.82L188.282 28H183.162L191.974 8.89887H198.214Z" fill="#180A0A"/>
<path d="M26.6058 9.25417C25.0436 10.4409 23.6066 11.7812 22.3169 13.2546C21.7022 13.9627 21.1589 14.6707 20.6728 15.3292C20.073 14.9566 19.3794 14.759 18.6714 14.759C17.9634 14.759 17.2697 14.9566 16.6699 15.3292C16.2267 14.7344 15.7263 14.1043 15.1902 13.4529C13.8516 11.9041 12.3544 10.497 10.7227 9.25417L18.6785 0C21.3233 3.08708 23.9657 6.1718 26.6058 9.25417Z" fill="#E85C0D"/>
<path d="M37.3494 18.5016L28.0139 26.3539C26.8118 24.8099 25.4591 23.3869 23.9753 22.1056C23.2604 21.4967 22.5456 20.9586 21.8809 20.4771C22.2593 19.8825 22.4601 19.1939 22.4601 18.491C22.4601 17.7881 22.2593 17.0996 21.8809 16.505C22.4956 16.073 23.1318 15.5845 23.768 15.0464C25.3502 13.7347 26.7878 12.2608 28.0568 10.6494L37.3494 18.5016Z" fill="#E85C0D"/>
<path d="M26.6058 27.7486L18.6785 36.9957L10.7227 27.7486C12.283 26.5597 13.7198 25.2196 15.0115 23.7482C15.6263 23.0401 16.1695 22.3321 16.6556 21.6736C17.251 22.0504 17.9434 22.2495 18.6499 22.2471C19.3859 22.2606 20.1095 22.0587 20.73 21.6665C21.1732 22.2754 21.6593 22.9056 22.2025 23.5357C23.5225 25.0841 24.9978 26.4957 26.6058 27.7486Z" fill="#E85C0D"/>
<path d="M14.9038 18.5012C14.9003 19.2056 15.1013 19.8963 15.4828 20.4908C14.8752 20.9298 14.2391 21.4183 13.5886 21.9564C12.0256 23.2749 10.6029 24.7482 9.34259 26.3534L0 18.5012L9.34259 10.6206C10.5388 12.1696 11.8921 13.5931 13.3813 14.8689C14.0524 15.4479 14.7539 15.9915 15.4828 16.4974C15.0979 17.0956 14.8967 17.7918 14.9038 18.5012Z" fill="#E85C0D"/>
</svg>
